<mxfile host="app.diagrams.net" agent="Mozilla/5.0 (Windows NT 10.0; Win64; x64) AppleWebKit/537.36 (KHTML, like Gecko) Chrome/134.0.0.0 Safari/537.36" version="26.1.1">
  <diagram name="Page-1" id="5ybP3fVxR_O7OG9nowo5">
    <mxGraphModel dx="954" dy="566" grid="1" gridSize="10" guides="1" tooltips="1" connect="1" arrows="1" fold="1" page="1" pageScale="1" pageWidth="827" pageHeight="1169" math="0" shadow="0" adaptiveColors="auto">
      <root>
        <mxCell id="0" />
        <mxCell id="1" parent="0" />
        <mxCell id="vFmSvjuSKfPeqINILVZh-71" value="Admin" style="whiteSpace=wrap;strokeWidth=2;fontStyle=1;fontSize=13;fillColor=#ffcc99;strokeColor=#36393d;" vertex="1" parent="1">
          <mxGeometry x="37" y="147" width="105" height="54" as="geometry" />
        </mxCell>
        <mxCell id="vFmSvjuSKfPeqINILVZh-72" value="Event" style="whiteSpace=wrap;strokeWidth=2;fontStyle=1;fontSize=13;fillColor=#ffcc99;strokeColor=#36393d;" vertex="1" parent="1">
          <mxGeometry x="103" y="274" width="100" height="54" as="geometry" />
        </mxCell>
        <mxCell id="vFmSvjuSKfPeqINILVZh-73" value="Member" style="whiteSpace=wrap;strokeWidth=2;fontStyle=1;fontSize=13;fillColor=#ffcc99;strokeColor=#36393d;" vertex="1" parent="1">
          <mxGeometry x="221" y="147" width="117" height="54" as="geometry" />
        </mxCell>
        <mxCell id="vFmSvjuSKfPeqINILVZh-74" value="System" style="whiteSpace=wrap;strokeWidth=2;fontStyle=1;fontSize=13;fillColor=#ffcc99;strokeColor=#36393d;" vertex="1" parent="1">
          <mxGeometry x="224" y="20" width="110" height="54" as="geometry" />
        </mxCell>
        <mxCell id="vFmSvjuSKfPeqINILVZh-75" value="Creates" style="curved=1;startArrow=none;endArrow=block;exitX=0.22;exitY=1;entryX=0;entryY=0.05;rounded=0;fontStyle=1;strokeWidth=2;fontSize=13;fillColor=#ffcc99;strokeColor=#36393d;" edge="1" parent="1" source="vFmSvjuSKfPeqINILVZh-71" target="vFmSvjuSKfPeqINILVZh-72">
          <mxGeometry relative="1" as="geometry">
            <Array as="points">
              <mxPoint x="20" y="238" />
            </Array>
          </mxGeometry>
        </mxCell>
        <mxCell id="vFmSvjuSKfPeqINILVZh-76" value="Edits" style="curved=1;startArrow=none;endArrow=block;exitX=0.5;exitY=1;entryX=0.23;entryY=0;rounded=0;fontStyle=1;strokeWidth=2;fontSize=13;fillColor=#ffcc99;strokeColor=#36393d;" edge="1" parent="1" source="vFmSvjuSKfPeqINILVZh-71" target="vFmSvjuSKfPeqINILVZh-72">
          <mxGeometry relative="1" as="geometry">
            <Array as="points">
              <mxPoint x="90" y="238" />
            </Array>
          </mxGeometry>
        </mxCell>
        <mxCell id="vFmSvjuSKfPeqINILVZh-77" value="Deletes" style="curved=1;startArrow=none;endArrow=block;exitX=0.78;exitY=1;entryX=0.52;entryY=0;rounded=0;fontStyle=1;strokeWidth=2;fontSize=13;fillColor=#ffcc99;strokeColor=#36393d;" edge="1" parent="1" source="vFmSvjuSKfPeqINILVZh-71" target="vFmSvjuSKfPeqINILVZh-72">
          <mxGeometry relative="1" as="geometry">
            <Array as="points">
              <mxPoint x="158" y="238" />
            </Array>
          </mxGeometry>
        </mxCell>
        <mxCell id="vFmSvjuSKfPeqINILVZh-78" value="Views" style="curved=1;startArrow=none;endArrow=block;exitX=0.32;exitY=1;entryX=0.83;entryY=0;rounded=0;fontStyle=1;strokeWidth=2;fontSize=13;fillColor=#ffcc99;strokeColor=#36393d;" edge="1" parent="1" source="vFmSvjuSKfPeqINILVZh-73" target="vFmSvjuSKfPeqINILVZh-72">
          <mxGeometry relative="1" as="geometry">
            <Array as="points">
              <mxPoint x="231" y="238" />
            </Array>
          </mxGeometry>
        </mxCell>
        <mxCell id="vFmSvjuSKfPeqINILVZh-79" value="Registers" style="curved=1;startArrow=none;endArrow=block;exitX=0.6;exitY=1;entryX=1;entryY=0.12;rounded=0;fontStyle=1;strokeWidth=2;fontSize=13;fillColor=#ffcc99;strokeColor=#36393d;" edge="1" parent="1" source="vFmSvjuSKfPeqINILVZh-73" target="vFmSvjuSKfPeqINILVZh-72">
          <mxGeometry relative="1" as="geometry">
            <Array as="points">
              <mxPoint x="308" y="238" />
            </Array>
          </mxGeometry>
        </mxCell>
        <mxCell id="vFmSvjuSKfPeqINILVZh-80" value="Confirms Registration" style="curved=1;startArrow=none;endArrow=block;exitX=0.5;exitY=1;entryX=0.5;entryY=0;rounded=0;fontStyle=1;strokeWidth=2;fontSize=13;fillColor=#ffcc99;strokeColor=#36393d;" edge="1" parent="1" source="vFmSvjuSKfPeqINILVZh-74" target="vFmSvjuSKfPeqINILVZh-73">
          <mxGeometry relative="1" as="geometry">
            <Array as="points" />
          </mxGeometry>
        </mxCell>
      </root>
    </mxGraphModel>
  </diagram>
</mxfile>
